<svg viewBox="0 0 176 43" xmlns="http://www.w3.org/2000/svg" data-logo="logo">
        <g transform="translate(0, 1) rotate(0)" id="logogram" style="opacity: 1;"><path fill="#FF500B" d="M35.5 0.5C45.9934 0.5 54.5 9.00659 54.5 19.5V40.5C50.0817 40.5 46.5 36.9183 46.5 32.5V19.5C46.5 13.4249 41.5751 8.5 35.5 8.5H30.2988C27.6467 8.50004 25.1029 9.55339 23.2275 11.4287L9.67188 24.9854C8.92179 25.7354 8.50006 26.7527 8.5 27.8135V28.5C8.5 30.7091 10.2909 32.5 12.5 32.5H30.5C30.5 36.7801 27.1389 40.2748 22.9121 40.4893L22.5 40.5H12.5C5.87259 40.5 0.5 35.1274 0.5 28.5V27.8135C0.500062 24.631 1.76427 21.5785 4.01465 19.3281L17.5713 5.77246C20.9469 2.39685 25.525 0.500044 30.2988 0.5H35.5Z"></path><path fill="#FF500B" d="M37.5 12.5C40.2614 12.5 42.5 14.7386 42.5 17.5V40.5C38.0817 40.5 34.5 36.9183 34.5 32.5V20.5H31.1562L24.6207 27.0355C23.683 27.9732 22.4113 28.5 21.0852 28.5H12.9775C12.5588 28.5 12.3491 27.9937 12.6452 27.6976L26.3789 13.9648C27.3165 13.0272 28.588 12.5 29.9141 12.5H37.5Z"></path></g>
        <g transform="translate(61, 8.5)" id="logotype" style="opacity: 1;"><path d="M17.64 26.38L17.64 26.38Q14.58 26.38 12.31 25.44Q10.05 24.50 8.79 22.65Q7.52 20.80 7.45 18.10L7.45 18.10L12.53 18.10Q12.63 19.39 13.30 20.25Q13.96 21.11 15.07 21.54Q16.19 21.97 17.59 21.97L17.59 21.97Q18.99 21.97 20.02 21.57Q21.06 21.16 21.64 20.43Q22.22 19.69 22.22 18.72L22.22 18.72Q22.22 17.85 21.70 17.26Q21.18 16.67 20.20 16.24Q19.23 15.81 17.83 15.49L17.83 15.49L15.02 14.79Q11.79 14.00 9.96 12.32Q8.14 10.64 8.14 7.87L8.14 7.87Q8.14 5.56 9.38 3.83Q10.61 2.11 12.78 1.15Q14.94 0.19 17.71 0.19L17.71 0.19Q20.53 0.19 22.63 1.16Q24.73 2.13 25.91 3.84Q27.09 5.56 27.12 7.80L27.12 7.80L22.08 7.80Q21.94 6.26 20.77 5.42Q19.60 4.59 17.66 4.59L17.66 4.59Q16.34 4.59 15.40 4.96Q14.46 5.34 13.96 6.00Q13.47 6.67 13.47 7.53L13.47 7.53Q13.47 8.47 14.04 9.09Q14.61 9.71 15.54 10.10Q16.48 10.48 17.55 10.74L17.55 10.74L19.86 11.30Q21.47 11.66 22.85 12.28Q24.23 12.89 25.28 13.79Q26.32 14.69 26.89 15.92Q27.46 17.15 27.46 18.75L27.46 18.75Q27.46 21.06 26.30 22.78Q25.14 24.50 22.94 25.44Q20.73 26.38 17.64 26.38ZM37.13 26.38L37.13 26.38Q34.26 26.38 32.16 25.14Q30.05 23.90 28.92 21.68Q27.78 19.47 27.78 16.53L27.78 16.53Q27.78 13.56 28.92 11.35Q30.05 9.13 32.16 7.89Q34.26 6.65 37.13 6.65L37.13 6.65Q40.02 6.65 42.11 7.89Q44.21 9.13 45.34 11.35Q46.48 13.56 46.48 16.53L46.48 16.53Q46.48 19.47 45.34 21.68Q44.21 23.90 42.11 25.14Q40.02 26.38 37.13 26.38ZM37.13 22.34L37.13 22.34Q38.50 22.34 39.42 21.58Q40.34 20.82 40.80 19.50Q41.27 18.17 41.27 16.52L41.27 16.52Q41.27 14.82 40.80 13.51Q40.34 12.19 39.42 11.44Q38.50 10.69 37.13 10.69L37.13 10.69Q35.76 10.69 34.85 11.44Q33.93 12.19 33.47 13.51Q33.01 14.82 33.01 16.52L33.01 16.52Q33.01 18.17 33.47 19.50Q33.93 20.82 34.85 21.58Q35.76 22.34 37.13 22.34ZM47.53 0.54L52.66 0.54L52.66 26L47.53 26L47.53 0.54ZM65.71 26L59.88 26L52.84 6.89L58.29 6.89L61.50 16.81Q62.08 18.67 62.52 20.57Q62.95 22.46 63.42 24.50L63.42 24.50L62.32 24.50Q62.77 22.46 63.19 20.57Q63.62 18.67 64.20 16.81L64.20 16.81L67.38 6.89L72.76 6.89L65.71 26ZM81.59 26.38L81.59 26.38Q78.67 26.38 76.55 25.18Q74.43 23.98 73.29 21.78Q72.16 19.57 72.16 16.55L72.16 16.55Q72.16 13.59 73.29 11.37Q74.41 9.15 76.48 7.90Q78.55 6.65 81.34 6.65L81.34 6.65Q83.21 6.65 84.84 7.25Q86.46 7.85 87.69 9.06Q88.92 10.26 89.62 12.07Q90.31 13.88 90.31 16.34L90.31 16.34L90.31 17.78L74.26 17.78L74.26 14.57L87.80 14.57L85.40 15.42Q85.40 13.93 84.95 12.83Q84.50 11.73 83.60 11.12Q82.70 10.52 81.37 10.52L81.37 10.52Q80.05 10.52 79.12 11.13Q78.19 11.75 77.71 12.80Q77.23 13.85 77.23 15.20L77.23 15.20L77.23 17.47Q77.23 19.13 77.79 20.26Q78.34 21.39 79.34 21.95Q80.34 22.51 81.68 22.51L81.68 22.51Q82.58 22.51 83.32 22.26Q84.05 22.00 84.57 21.50Q85.09 20.99 85.37 20.26L85.37 20.26L90.02 21.13Q89.56 22.70 88.41 23.89Q87.27 25.08 85.55 25.73Q83.83 26.38 81.59 26.38ZM96.01 26L89.97 26L100.48 11.05L100.48 15.01L90.80 0.54L96.84 0.54L99.63 4.81Q100.42 6.02 100.92 6.99Q101.42 7.95 101.84 8.85Q102.26 9.75 102.78 10.70L102.78 10.70L101.39 10.70Q101.90 9.75 102.33 8.86Q102.76 7.97 103.27 7.00Q103.78 6.02 104.57 4.81L104.57 4.81L107.41 0.54L113.32 0.54L103.80 14.72L103.80 10.96L114.07 26L107.88 26L104.35 20.67Q103.65 19.59 103.21 18.84Q102.78 18.09 102.42 17.41Q102.07 16.74 101.61 15.90L101.61 15.90L102.43 15.90Q101.99 16.72 101.63 17.40Q101.27 18.07 100.83 18.83Q100.38 19.59 99.66 20.67L99.66 20.67L96.01 26Z" fill="#050505"></path></g>
        
      </svg>